<?xml version="1.0" encoding="utf-8"?>
<!-- Generator: Adobe Illustrator 21.0.0, SVG Export Plug-In . SVG Version: 6.00 Build 0)  -->
<svg version="1.1" id="Layer_1" xmlns="http://www.w3.org/2000/svg" xmlns:xlink="http://www.w3.org/1999/xlink" x="0px" y="0px"
	 viewBox="0 0 141.7 141.7" style="enable-background:new 0 0 141.7 141.7;" xml:space="preserve">
<style type="text/css">
	.st0{fill:#1E2F50;}
</style>
<g>
	<path class="st0" d="M1.9,71c-0.1-3.5,1.5-6.1,3.9-8.4c6.4-6.3,12.7-12.7,19-19C37.2,31.1,49.7,18.7,62.2,6.2
		c6.1-6.1,11.1-6.2,17.1-0.1c18.7,18.7,37.4,37.4,56.1,56.1c6,6,6,11.3,0.1,17.2c-18.8,18.8-37.6,37.6-56.4,56.4
		c-5.8,5.8-10.9,5.8-16.8-0.1C43.6,117,24.9,98.3,6.2,79.6C3.8,77.2,1.8,74.6,1.9,71z M132.3,70.9c-1.2-1.5-2-2.8-3.1-3.8
		C111,48.9,92.8,30.7,74.6,12.5c-3.4-3.4-4.3-3.4-7.8,0C55.7,23.7,44.6,34.8,33.5,46c-7.3,7.3-14.5,14.5-21.7,21.8
		c-2.6,2.6-2.6,3.5-0.1,6.1c2.2,2.3,4.5,4.5,6.7,6.8c16.1,16.1,32.3,32.3,48.4,48.4c3.7,3.7,4.3,3.7,8.1,0c2.4-2.3,4.7-4.7,7.1-7
		c15.7-15.7,31.5-31.5,47.2-47.2C130.2,73.7,131.1,72.4,132.3,70.9z"/>
	<path class="st0" d="M91,66.4c-4.1,0-7,0-10,0c-5.3,0-10.7-0.1-16,0c-5,0.1-7.3,2.4-7.5,7.5c-0.1,3.9,0,7.8,0,11.7
		c0,1.2,0,2.3-0.2,3.4c-0.4,2.1-1.9,3.3-4,3.2c-2-0.1-3.6-1.4-3.6-3.6c0-6.2-0.4-12.5,0.3-18.6c0.9-7.4,6.9-11.9,15.1-12.1
		c6.8-0.2,13.6,0,20.3,0c1.4,0,2.9,0,5,0c-1-1.3-1.5-2.2-2.2-3c-2.4-2.5-4.8-5-7.2-7.5c-1.6-1.8-1.5-3.7,0.1-5.4
		c1.7-1.8,3.6-1.7,5.3,0c5.8,5.8,11.7,11.6,17.4,17.5c1.7,1.7,1.6,3.7-0.1,5.4C98,70.8,92.2,76.6,86.4,82.4c-1.5,1.5-3.3,1.7-5,0.1
		c-1.7-1.6-2.1-3.5-0.6-5.4c1.5-1.8,3.1-3.4,4.7-5C87.1,70.5,88.7,68.8,91,66.4z"/>
</g>
</svg>
