<?xml version="1.0" encoding="utf-8"?>
<!-- Generator: Adobe Illustrator 21.0.0, SVG Export Plug-In . SVG Version: 6.00 Build 0)  -->
<svg version="1.1" id="Layer_1" xmlns="http://www.w3.org/2000/svg" xmlns:xlink="http://www.w3.org/1999/xlink" x="0px" y="0px"
	 viewBox="0 0 831 529.3" style="enable-background:new 0 0 831 529.3;" xml:space="preserve">
<style type="text/css">
	.st0{fill:#FFFFFF;}
</style>
<g>
	<path d="M511.2,500.4c-29.6,12-62.1,18.6-96,18.6s-66.4-6.6-96-18.6V295c0-8.8-7.2-16-16-16c-8.8,0-16,7.2-16,16v189.8
		c-76.5-44.3-128-127-128-221.8c0-141.4,114.6-256,256-256s256,114.6,256,256c0,94.8-51.5,177.5-128,221.8V295c0-8.8-7.2-16-16-16
		s-16,7.2-16,16V500.4z M354.4,240.6c5.3,7.1,15.3,8.5,22.4,3.2c7.1-5.3,8.5-15.3,3.2-22.4c-30.4-40.5-91.2-40.5-121.6,0
		c-5.3,7.1-3.9,17.1,3.2,22.4c7.1,5.3,17.1,3.9,22.4-3.2C301.6,217.1,336.8,217.1,354.4,240.6L354.4,240.6z M476,240.6
		c17.6-23.5,52.8-23.5,70.4,0c5.3,7.1,15.3,8.5,22.4,3.2c7.1-5.3,8.5-15.3,3.2-22.4c-30.4-40.5-91.2-40.5-121.6,0
		c-5.3,7.1-3.9,17.1,3.2,22.4S470.7,247.7,476,240.6z M367.2,343v32c0,26.5,21.5,48,48,48s48-21.5,48-48v-32c0-26.5-21.5-48-48-48
		S367.2,316.5,367.2,343z"/>
	<g id="tZwUYl.tif">
		<g>
			<path d="M9.8,494.8c-0.7-1.1-1.3-2.1-2-3.2c-0.3-1-0.6-1.9-0.9-2.9c-0.8-2.6-0.9-5.4-0.4-8c0.8-4.2,3.1-7.9,6.7-10.3
				c5.4-3.6,11-7,16.6-10.4c10-6.2,20-12.4,29.9-18.6c0.4-0.3,0.9-0.7,1-1.1c1.7-7.2,3.4-14.5,5.1-21.7c0.8-3.2,1.6-6.5,3.3-9.3
				c2-3.3,4.3-6.5,7.6-8.6c0.2-0.2,0.3-0.5,0.5-0.8c1.1-0.7,2.3-1.4,3.4-2.1c0.3,0,0.8,0,1-0.1c2.1-1.2,4.3-1.7,6.6-2.3
				c3.8-0.9,7.5-0.5,11.3-0.2c3.4,0.3,6.8,0.8,10.2,1.2c4.2,0.5,8.5,1,12.7,1.5c4.3,0.5,8.7,1.1,13,1.5c1.1,0.1,1.7,0.5,2.2,1.4
				c14.9,24,29.8,47.9,44.6,71.8c0.3,0.4,0.5,0.8,0.8,1.2c-2,2.5-3.9,4.8-5.9,7.1c-2.1,2.3-4.2,4.6-6.4,6.7c-2.1,2.1-4.3,4-6.5,6
				c-2.5,2.2-5.1,4.4-7.8,6.4c-2.1,1.6-4.3,3-6.4,4.5c-0.3,0.2-0.6,0.6-0.8,1c-8.1,5-16.2,10.1-24.3,15.1c-0.4,0-0.8,0-1.1,0.2
				c-2.6,1.4-5.4,1.8-8.2,1.5c-3.4-0.3-6.5-1.3-9-3.7c-0.8-0.8-1.5-1.7-2.4-2.4c-2.2-1.7-2.8-4.2-3.4-6.6c-0.4-1.3-0.9-0.9-1.5-0.9
				c-1.5,0.1-3,0.6-4.4,0.5c-4.8-0.3-8.9-2.3-12-6c-1-1.2-1.8-2.6-2.5-4c-0.6-1.2-1-2.6-1.5-3.9c-4.7,1.2-9.1,0.8-13.2-1.6
				c-4.1-2.4-6.7-6.1-8-10.9c-0.6,0.3-1,0.6-1.4,0.9c-7.4,4.6-14.9,9.3-22.3,13.9c-2.9,1.8-6,3.2-9.5,3.4c-2.9,0.2-5.6-0.3-8.2-1.6
				C13.6,498.3,11.6,496.7,9.8,494.8z"/>
			<path d="M205.9,470c-0.4,0.1-0.9,0-1.2,0.2c-3,1.5-8.2,0.7-10.6-1.7c-1.2-1.2-2.4-2.6-3.4-4c-13.5-21.7-27-43.4-40.6-65.1
				c-1.8-2.8-2.5-5.8-1.8-9.1c0.4-1.8,1.3-3.4,2.5-4.9c2.2-2.5,5.2-3.8,7.9-5.5c1.6-1,4.3-0.5,5.6,0.7c0.8,0.8,1.6,1.6,2.2,2.6
				c15.5,24.9,31,49.8,46.5,74.7c1.3,2,1.5,4.1,0.5,6.2c-0.3,0.6-0.6,1.1-0.9,1.7C210.5,467.2,208.2,468.6,205.9,470z"/>
		</g>
	</g>
</g>
<rect x="827.2" class="st0" width="3.8" height="3.8"/>
</svg>
