<?xml version="1.0" encoding="utf-8"?>
<!-- Generator: Adobe Illustrator 21.0.0, SVG Export Plug-In . SVG Version: 6.00 Build 0)  -->
<svg version="1.1" id="Layer_1" xmlns="http://www.w3.org/2000/svg" xmlns:xlink="http://www.w3.org/1999/xlink" x="0px" y="0px"
	 viewBox="0 0 500 500" style="enable-background:new 0 0 500 500;" xml:space="preserve">
<g id="i6K3PQ.tif">
	<g>
		<path d="M233.7,4c10.9,0,21.8,0,32.7,0c6,0.8,12,1.4,18,2.3c40.7,5.9,78,20.6,111.1,45.3c54.1,40.4,86.8,94.1,97.8,160.8
			c1.2,7.1,1.9,14.2,2.9,21.3c0,10.9,0,21.8,0,32.7c-0.8,6-1.4,12-2.3,18c-5.3,36.2-17.5,70-37.9,100.4
			c-40.6,60.3-96.8,96.6-168.6,108.4c-6.9,1.1-13.9,1.9-20.8,2.8c-10.9,0-21.8,0-32.7,0c-6-0.8-12-1.4-18-2.3
			c-40.7-5.9-78-20.6-111.1-45.3C50.5,408,17.8,354.4,6.9,287.6C5.7,280.6,5,273.4,4,266.3c0-10.9,0-21.8,0-32.7
			c0.8-6,1.4-12,2.3-18c5.3-36.2,17.5-70,37.9-100.4C84.8,54.9,141,18.6,212.9,6.8C219.8,5.7,226.7,4.9,233.7,4z M473.6,250.1
			C473.9,127,373.7,26.7,250.1,26.4C127,26.1,26.7,126.3,26.4,249.9C26.1,373,126.3,473.3,249.9,473.6
			C373,473.9,473.3,373.7,473.6,250.1z"/>
		<path d="M303.4,346.7c-1.3,5.3-2.4,9.7-3.7,14.9c-11.6,3.6-23.1,8.2-35,10.6c-13.6,2.7-27.4,2.2-39.7-6
			c-10.5-7-14.7-16.8-13.9-29.1c1.1-17.1,7.3-33,11.7-49.3c3-11.4,6.4-22.8,8.5-34.4c3-15.8-3.3-22.3-19.4-20.8
			c-5.8,0.5-11.4,2.2-17.6,3.5c1.2-4.7,2.3-9.2,3.6-14.1c17.6-6.4,34.7-14.1,54.1-12.4c16.1,1.4,32.7,10.8,33,30.8
			c0.1,8.2-1,16.6-3,24.6c-4.9,19.5-10.7,38.8-15.8,58.2c-1.1,4.3-1.5,8.8-1.6,13.3c-0.2,7.8,3.5,12.8,11.3,13.4
			c7.1,0.5,14.2-0.6,21.3-1.2C298.9,348.5,300.6,347.6,303.4,346.7z"/>
		<path d="M306.4,155.3c-0.1,21.3-25,35.7-45.6,26.2c-17.1-7.9-23.3-26.5-13.2-40.9c7.6-10.8,18.6-14.9,31.4-13.3
			c11.5,1.4,20.4,7.3,25,18.3C305.2,148.6,305.6,152,306.4,155.3z"/>
	</g>
</g>
</svg>
