<?xml version="1.0" encoding="utf-8"?>
<!-- Generator: Adobe Illustrator 21.0.0, SVG Export Plug-In . SVG Version: 6.00 Build 0)  -->
<svg version="1.1" id="Layer_1" xmlns="http://www.w3.org/2000/svg" xmlns:xlink="http://www.w3.org/1999/xlink" x="0px" y="0px"
	 viewBox="0 0 141.7 141.7" style="enable-background:new 0 0 141.7 141.7;" xml:space="preserve">
<style type="text/css">
	.st0{fill:#1E2E50;}
</style>
<g>
	<path class="st0" d="M70.8,126.1c-17.8,0-35.5,0-53.3,0c-2.9,0-5.5-0.7-7.9-2.3c-4.4-2.9-6.4-7-6.4-12.1c-0.1-27.2,0-54.5,0-81.7
		c0-5.9,3.8-12.2,10.5-14c1-0.3,2.1-0.4,3.2-0.4c35.9,0,71.9,0,107.8,0c7.2,0,13.4,6.2,13.6,13.7c0.2,6.4,0,12.8,0,19.3
		c0,21,0,42,0,63.1c0,6-3.9,12.3-10.5,14c-1.4,0.4-3,0.4-4.5,0.4C105.9,126.1,88.4,126.1,70.8,126.1z M70.8,22.1
		c-17.5,0-35.1,0-52.6,0c-2.6,0-4.6,0.8-6.3,2.6c-1.9,2-2.3,4.3-2.3,6.8c0,26.2,0.1,52.5-0.1,78.7c0,5.6,3.9,9.6,9.7,9.5
		c34.4-0.2,68.8-0.2,103.2,0c5.8,0,9.7-3.9,9.6-9.5C131.9,84,132,57.7,132,31.5c0-6.5-3-9.4-9.6-9.4C105.2,22.1,88,22.1,70.8,22.1z"
		/>
	<path class="st0" d="M71,77.2c2.9-3,5.8-6,8.7-8.9c8.6-8.6,17.2-17.3,25.9-25.9c0.8-0.8,1.8-1.6,2.8-2.2c1.7-0.9,3.1-0.6,4.1,0.6
		c0.9,1.1,0.9,3.2-0.2,4.5c-0.3,0.4-0.8,0.8-1.1,1.2C98.9,58.7,86.8,70.9,74.6,83c-0.5,0.5-0.9,1-1.4,1.4c-1.7,1.4-2.9,1.4-4.7,0
		c-0.4-0.3-0.8-0.8-1.2-1.1C55,71,42.7,58.7,30.4,46.4c-0.9-0.9-1.8-1.7-1.8-3.3c0.1-2.6,2.1-4.1,4.4-3c1.2,0.6,2.3,1.6,3.3,2.6
		c11,11,22,22,33,33C69.8,76.1,70.3,76.6,71,77.2z"/>
	<path class="st0" d="M113,98.1c0,3.1-1.9,4.5-4.1,3.7c-1-0.3-1.9-1-2.6-1.8c-3-2.9-6-5.9-9-9c-2.3-2.3-2.6-4.4-1-5.9
		c1.6-1.5,3.5-1.1,5.9,1.2c2.9,2.9,5.9,5.8,8.7,8.8C112,96.2,112.6,97.5,113,98.1z"/>
	<path class="st0" d="M32.5,101.9c-3,0-4.4-1.8-3.7-4c0.3-0.9,0.9-1.7,1.5-2.4c3.2-3.3,6.4-6.5,9.7-9.7c2.1-2,3.6-2,5.3-0.3
		c1.2,1.2,1.4,2.4,0.4,3.7c-0.8,1-1.6,2-2.5,3c-2.6,2.6-5.2,5.3-7.9,7.8C34.4,101,33.1,101.5,32.5,101.9z"/>
</g>
</svg>
