<svg xmlns="http://www.w3.org/2000/svg" width="24" height="23.996" viewBox="0 0 24 23.996">
  <g id="Group_20921" data-name="Group 20921" transform="translate(409.669 -88.278)">
    <path id="Path_13835" data-name="Path 13835" d="M-406.648,88.287c.78,0,1.56,0,2.34,0,.475,0,.652.177.653.656q0,2.34,0,4.68c0,.5-.169.667-.671.668q-2.326,0-4.651,0c-.516,0-.682-.169-.682-.686q0-2.325,0-4.651c0-.5.172-.666.671-.667Q-407.818,88.285-406.648,88.287Z" transform="translate(-0.008 -0.008)" fill="#707070"/>
    <path id="Path_13836" data-name="Path 13836" d="M-173.188,91.291c0,.78,0,1.56,0,2.34,0,.476-.177.655-.654.655q-2.355,0-4.71,0c-.462,0-.639-.178-.64-.639q0-2.369,0-4.738c0-.442.185-.625.623-.625q2.384,0,4.768,0c.422,0,.609.188.611.609C-173.185,89.692-173.188,90.491-173.188,91.291Z" transform="translate(-212.483 -0.004)" fill="#707070"/>
    <path id="Path_13837" data-name="Path 13837" d="M-409.66,321.695c0-.77,0-1.54,0-2.311,0-.482.172-.66.647-.661q2.355,0,4.71,0c.475,0,.646.177.647.662q0,2.34,0,4.68c0,.491-.178.661-.677.662q-2.326,0-4.651,0c-.511,0-.676-.169-.676-.691Q-409.661,322.865-409.66,321.695Z" transform="translate(-0.008 -212.453)" fill="#707070"/>
    <path id="Path_13838" data-name="Path 13838" d="M-173.181,321.728c0,.78,0,1.56,0,2.34,0,.492-.176.664-.674.664q-2.326,0-4.651,0c-.512,0-.678-.169-.679-.689q0-2.311,0-4.621c0-.536.16-.693.7-.693q2.3,0,4.593,0c.554,0,.708.158.709.718Q-173.18,320.587-173.181,321.728Z" transform="translate(-212.489 -212.459)" fill="#707070"/>
    <path id="Path_13839" data-name="Path 13839" d="M-288.328,91.287c0,.79,0,1.579,0,2.369,0,.45-.169.625-.616.626q-2.384.006-4.768,0c-.431,0-.6-.18-.6-.609q0-2.4,0-4.8c0-.408.181-.595.587-.6q2.413-.005,4.826,0a.508.508,0,0,1,.573.579C-288.325,89.669-288.328,90.478-288.328,91.287Z" transform="translate(-106.347)" fill="#707070"/>
    <path id="Path_13840" data-name="Path 13840" d="M-406.66,203.614c.79,0,1.579,0,2.369,0,.45,0,.625.167.626.615q.006,2.383,0,4.767c0,.431-.18.6-.609.6q-2.4,0-4.8,0c-.408,0-.6-.182-.6-.586q-.005-2.413,0-4.825a.508.508,0,0,1,.579-.574C-408.278,203.611-407.469,203.614-406.66,203.614Z" transform="translate(0 -106.332)" fill="#707070"/>
    <path id="Path_13841" data-name="Path 13841" d="M-176.2,209.6c-.79,0-1.579,0-2.369,0-.45,0-.625-.169-.626-.616q-.005-2.383,0-4.767c0-.431.179-.6.609-.6q2.4,0,4.8,0c.409,0,.6.181.6.586q.006,2.413,0,4.825a.509.509,0,0,1-.579.573C-174.58,209.6-175.389,209.6-176.2,209.6Z" transform="translate(-212.481 -106.332)" fill="#707070"/>
    <path id="Path_13842" data-name="Path 13842" d="M-294.315,321.708q0-1.17,0-2.34c0-.474.162-.646.624-.647q2.369,0,4.738,0c.452,0,.624.174.625.617q0,2.383,0,4.767c0,.442-.177.618-.624.618q-2.369,0-4.738,0c-.448,0-.623-.176-.624-.618C-294.317,323.306-294.315,322.507-294.315,321.708Z" transform="translate(-106.348 -212.452)" fill="#707070"/>
    <path id="Path_13843" data-name="Path 13843" d="M-288.325,206.595c0,.8,0,1.6,0,2.4,0,.447-.169.612-.622.612q-2.369,0-4.738,0c-.466,0-.626-.164-.627-.637q0-2.354,0-4.708c0-.486.158-.641.651-.641q2.34,0,4.68,0c.506,0,.656.153.657.666Q-288.323,205.439-288.325,206.595Z" transform="translate(-106.35 -106.336)" fill="#707070"/>
  </g>
</svg>
