<?xml version="1.0" encoding="utf-8"?>
<!-- Generator: Adobe Illustrator 21.0.0, SVG Export Plug-In . SVG Version: 6.00 Build 0)  -->
<svg version="1.1" id="Layer_1" xmlns="http://www.w3.org/2000/svg" xmlns:xlink="http://www.w3.org/1999/xlink" x="0px" y="0px"
	 viewBox="0 0 141.7 141.7" style="enable-background:new 0 0 141.7 141.7;" xml:space="preserve">
<g id="cSjG7K.tif">
	<g>
		<path d="M11.1,131.8c-6-0.2-10.2-5.4-8.8-10.5c0.4-1.7,1.2-3.3,2-4.8c7-14.1,14-28.3,21.2-42.3c1.2-2.3,1.2-4.1,0-6.4
			C18.1,53.6,11,39.4,4,25.1c-1.1-2.4-2.1-5.3-1.8-7.8c0.8-6,6.4-8.3,12.8-5.7c9.9,4.1,19.7,8.4,29.6,12.6
			c29.1,12.5,58.2,25,87.4,37.5c0.8,0.3,1.6,0.7,2.4,1c3.8,1.6,6.4,4.3,6.4,8.5c-0.1,4.2-2.6,6.8-6.4,8.5
			c-39.6,17-79.3,34-118.9,50.9C13.8,131.2,12.1,131.5,11.1,131.8z M20.6,27.7c-0.2,0.3-0.4,0.5-0.6,0.8c5.7,11.4,11.3,22.8,17.2,34
			c0.7,1.3,3.2,2.2,4.9,2.2c19.7,0.1,39.4,0.1,59.1,0.1c1,0,2.1-0.2,3.1-0.3c0-0.3,0.1-0.5,0.1-0.8C76.4,51.7,48.5,39.7,20.6,27.7z
			 M19.9,113.6c0.2,0.2,0.5,0.5,0.7,0.7c28-12,55.9-24,83.9-36c-0.1-0.4-0.2-0.7-0.4-1.1c-21.3,0-42.6,0-63.9,0.1
			c-1,0-2.5,0.9-3,1.8C31.4,90.6,25.7,102.1,19.9,113.6z"/>
	</g>
</g>
</svg>
